# xmcd
#
# Track frame offsets: 
#        150
#        11865
#        23623
#        35423
#        46460
#        60837
#        72827
#        85932
#        97752
#        111985
#        124440
#        138130
#        151522
#        164637
#        178282
#        192384
#        203799
#        218071
#        233414
#        248626
#        263589
#        275884
#        287889
#        302372
#        316864
#        330244
#        341584
#
# Disc length: 4730 seconds
#
# Revision: 1
# Processed by: cddbd v1.5.2PL0 Copyright (c) Steve Scherf et al.
# Submitted via: ExactAudioCopy v1.3
#
DISCID=7312781b
DTITLE=Muddy Waters - Akella Presents - Greatest Bluesmen - vol. 14  C
DTITLE=D2
DYEAR=2017
DGENRE=Blues
TTITLE0=Gypsy Woman
TTITLE1=Mean Disposition
TTITLE2=Hard Days
TTITLE3=Standin' Here Tremblin'
TTITLE4=I Feel Like Going Home
TTITLE5=You're Gonna Miss Me
TTITLE6=Down South Blues
TTITLE7=Kind Hearted Woman
TTITLE8=Where's My Woman Been
TTITLE9=Canary Bird
TTITLE10=You Gonna Need My Help
TTITLE11=Walkin' Blues
TTITLE12=Louisiana Blues
TTITLE13=Rollin' Stone (Alternate Take)
TTITLE14=You're Gonna Need My Help I Said
TTITLE15=Rollin' And Tumblin' Part 2
TTITLE16=Early Morning Blues
TTITLE17=They Call Me Muddy Waters
TTITLE18=Honey Bee
TTITLE19=All Night Long (Alternate Take #2)
TTITLE20=My Fault
TTITLE21=Howling Wolf
TTITLE22=Country Boy
TTITLE23=Please Have Mercy
TTITLE24=She Moves Me
TTITLE25=Sugar Sweet
TTITLE26=All Aboard
EXTD=
EXTT0=
EXTT1=
EXTT2=
EXTT3=
EXTT4=
EXTT5=
EXTT6=
EXTT7=
EXTT8=
EXTT9=
EXTT10=
EXTT11=
EXTT12=
EXTT13=
EXTT14=
EXTT15=
EXTT16=
EXTT17=
EXTT18=
EXTT19=
EXTT20=
EXTT21=
EXTT22=
EXTT23=
EXTT24=
EXTT25=
EXTT26=
PLAYORDER=
